# Blender v2.80 (sub 75) OBJ File: ''
# www.blender.org
mtllib other.mtl
o Cube
v -296.403442 -85.187172 347.722870
v -296.403442 -87.187172 347.722870
v -296.403442 -85.187172 349.722870
v -296.403442 -87.187172 349.722870
v -298.403442 -85.187172 347.722870
v -298.403442 -87.187172 347.722870
v -298.403442 -85.187172 349.722870
v -298.403442 -87.187172 349.722870
vt 0.375000 0.000000
vt 0.625000 0.000000
vt 0.625000 0.250000
vt 0.375000 0.250000
vt 0.375000 0.250000
vt 0.625000 0.250000
vt 0.625000 0.500000
vt 0.375000 0.500000
vt 0.625000 0.750000
vt 0.375000 0.750000
vt 0.625000 0.750000
vt 0.625000 1.000000
vt 0.375000 1.000000
vt 0.125000 0.500000
vt 0.375000 0.500000
vt 0.375000 0.750000
vt 0.125000 0.750000
vt 0.625000 0.500000
vt 0.875000 0.500000
vt 0.875000 0.750000
vn 0.0000 1.0000 0.0000
vn 0.0000 0.0000 1.0000
vn -1.0000 0.0000 0.0000
vn 0.0000 -1.0000 0.0000
vn 1.0000 0.0000 0.0000
vn 0.0000 0.0000 -1.0000
usemtl Material
s off
f 1/1/1 5/2/1 7/3/1 3/4/1
f 4/5/2 3/6/2 7/7/2 8/8/2
f 8/8/3 7/7/3 5/9/3 6/10/3
f 6/10/4 2/11/4 4/12/4 8/13/4
f 2/14/5 1/15/5 3/16/5 4/17/5
f 6/18/6 5/19/6 1/20/6 2/11/6
o server
v -197.403442 -83.854118 74.593872
v -197.403442 116.145882 74.593903
v -397.403442 116.145882 74.593903
v -397.403442 -83.854118 74.593872
v -397.403442 -83.854103 -29.311981
v -397.403442 116.145897 -29.311951
v -197.403442 116.145897 -29.311951
v -197.403442 -83.854103 -29.311981
v -197.403442 122.145882 74.593903
v -197.403442 122.145897 -29.311951
v -397.403442 122.145897 -29.311951
v -397.403442 122.145882 74.593903
v -197.403442 -75.754105 -21.211975
v -197.403442 -75.754120 66.493896
v -197.403442 108.045891 -21.211945
v -197.403442 108.045876 66.493927
v -192.903442 108.045876 66.493927
v -192.903442 108.045891 -21.211945
v -197.403442 -83.854134 182.998581
v -197.403442 116.145866 182.998611
v -397.403442 116.145866 182.998611
v -397.403442 -83.854134 182.998581
v -197.403442 122.145866 182.998611
v -197.403442 122.145882 79.092743
v -397.403442 122.145882 79.092743
v -397.403442 122.145866 182.998611
v -197.403442 -83.854118 79.092712
v -397.403442 -83.854118 79.092712
v -197.403442 -76.454117 86.492706
v -197.403442 -76.454132 175.598587
v -197.403442 116.145882 79.092743
v -197.403442 108.745888 86.492737
v -197.403442 108.745872 175.598618
v -193.303436 -76.454117 86.492706
v -193.303436 -76.454132 175.598587
v -197.403442 -83.854156 291.773804
v -197.403442 116.145851 291.773834
v -397.403442 116.145851 291.773834
v -397.403442 -83.854156 291.773804
v -397.403442 -83.854134 187.867935
v -397.403442 116.145866 187.867966
v -197.403442 116.145866 187.867966
v -197.403442 -83.854134 187.867935
v -197.403442 122.145851 291.773834
v -197.403442 122.145866 187.867966
v -397.403442 122.145866 187.867966
v -397.403442 122.145851 291.773834
v -197.403442 109.845863 194.167969
v -197.403442 -77.554138 194.167938
v -197.403442 109.845848 285.473846
v -197.403442 -77.554153 285.473816
v -397.403442 -83.854156 296.769928
v -397.403442 116.145851 296.769958
v -197.403442 116.145851 296.769958
v -197.403442 -83.854156 296.769928
v -197.403442 122.145821 400.675842
v -197.403442 122.145851 296.769958
v -397.403442 122.145851 296.769958
v -397.403442 122.145821 400.675842
v -197.403442 -83.854172 400.675812
v -397.403442 -83.854172 400.675812
v -197.403442 -78.754158 301.869934
v -197.403442 -78.754173 395.575806
v -197.403442 111.045845 301.869965
v -197.403442 116.145821 400.675842
v -197.403442 111.045815 395.575836
v -199.527313 114.021950 402.799713
v -199.527313 -81.730301 402.799683
v -196.210571 -77.561287 303.062805
v -196.210571 -77.561302 394.382935
v -192.210571 -77.561287 303.062805
v -192.210571 -77.561302 394.382935
v -192.210571 109.852974 394.382965
v -196.210571 109.852974 394.382965
v -192.903442 -75.754105 -21.211975
v -192.903442 -75.754120 66.493896
v -193.303436 108.745888 86.492737
v -193.303436 108.745872 175.598618
v -193.903442 -77.554138 194.167938
v -193.903442 109.845863 194.167969
v -193.903442 109.845848 285.473846
v -193.903442 -77.554153 285.473816
v -192.210571 109.852974 303.062836
v -397.403442 116.145882 79.092743
v -397.403442 116.145821 400.675842
v -395.279572 -81.730301 402.799683
v -395.279572 114.021950 402.799713
v -196.210571 109.852974 303.062836
vt 1.000000 0.000000
vt 1.000000 1.000000
vt 0.000000 1.000000
vt 0.000000 0.000000
vt 1.000000 0.000000
vt 1.000000 1.000000
vt 0.000000 1.000000
vt 0.000000 0.000000
vt 1.000000 0.000000
vt 1.000000 1.000000
vt 0.000000 1.000000
vt 0.000000 0.000000
vt 1.000000 0.000000
vt 1.000000 1.000000
vt 0.000000 1.000000
vt 0.000000 0.000000
vt 0.951539 0.048461
vt 0.048461 0.048461
vt 0.000000 0.000000
vt 1.000000 1.000000
vt 0.951539 0.951539
vt 0.000000 1.000000
vt 0.048461 0.951539
vt 1.000000 0.000000
vt 0.048461 0.951539
vt 0.951539 0.951539
vt 1.000000 0.000000
vt 1.000000 1.000000
vt 0.000000 1.000000
vt 0.000000 0.000000
vt 1.000000 0.000000
vt 1.000000 1.000000
vt 0.000000 1.000000
vt 0.000000 0.000000
vt 1.000000 0.000000
vt 1.000000 1.000000
vt 0.000000 1.000000
vt 0.000000 0.000000
vt 0.955727 0.044273
vt 0.044273 0.044273
vt 0.000000 0.000000
vt 1.000000 1.000000
vt 0.955727 0.955727
vt 0.000000 1.000000
vt 0.044273 0.955727
vt 1.000000 0.000000
vt 0.955727 0.044273
vt 0.044273 0.044273
vt 1.000000 0.000000
vt 1.000000 1.000000
vt 0.000000 1.000000
vt 0.000000 0.000000
vt 1.000000 0.000000
vt 1.000000 1.000000
vt 0.000000 1.000000
vt 0.000000 0.000000
vt 1.000000 0.000000
vt 1.000000 1.000000
vt 0.000000 1.000000
vt 0.000000 0.000000
vt 1.000000 0.000000
vt 1.000000 1.000000
vt 0.000000 1.000000
vt 0.000000 0.000000
vt 1.000000 1.000000
vt 0.962308 0.962308
vt 0.962308 0.037692
vt 0.000000 1.000000
vt 0.037692 0.962308
vt 0.000000 0.000000
vt 0.037692 0.037692
vt 1.000000 0.000000
vt 1.000000 0.000000
vt 1.000000 1.000000
vt 0.000000 1.000000
vt 0.000000 0.000000
vt 1.000000 0.000000
vt 1.000000 1.000000
vt 0.000000 1.000000
vt 0.000000 0.000000
vt 1.000000 0.000000
vt 1.000000 1.000000
vt 0.000000 1.000000
vt 0.000000 0.000000
vt 0.969488 0.030512
vt 0.030512 0.030512
vt 0.000000 0.000000
vt 1.000000 1.000000
vt 0.969488 0.969488
vt 0.000000 1.000000
vt 0.030512 0.969488
vt 1.000000 0.000000
vt 1.000000 1.000000
vt 0.989381 0.989381
vt 0.989381 0.010619
vt 1.000000 0.000000
vt 0.962400 0.037600
vt 0.037600 0.037600
vt 0.962400 0.037600
vt 0.037600 0.037600
vt 0.037600 0.962400
vt 0.037600 0.962400
vt 0.951539 0.048461
vt 0.048461 0.048461
vt 0.955727 0.955727
vt 0.044273 0.955727
vt 0.962308 0.037692
vt 0.962308 0.962308
vt 0.037692 0.962308
vt 0.037692 0.037692
vt 0.962400 0.962400
vt 1.000000 0.000000
vt 1.000000 1.000000
vt 0.000000 1.000000
vt 1.000000 0.000000
vt 1.000000 1.000000
vt 0.000000 1.000000
vt 1.000000 0.000000
vt 1.000000 1.000000
vt 0.000000 1.000000
vt 1.000000 0.000000
vt 1.000000 1.000000
vt 0.000000 1.000000
vt 0.000000 0.000000
vt 1.000000 0.000000
vt 1.000000 1.000000
vt 0.000000 1.000000
vt 0.000000 0.000000
vt 0.000000 0.000000
vt 0.000000 0.000000
vt 0.000000 0.000000
vt 0.000000 0.000000
vt 0.010619 0.010619
vt 0.010619 0.989381
vt 0.000000 1.000000
vt 0.962400 0.962400
vn 0.5774 -0.5774 0.5774
vn 0.7071 -0.0000 0.7071
vn -0.7071 -0.0000 0.7071
vn -0.5774 -0.5774 0.5774
vn -0.5774 -0.5774 -0.5774
vn -0.7071 0.0000 -0.7071
vn 0.7071 -0.0000 -0.7071
vn 0.5774 -0.5774 -0.5774
vn 0.5774 0.5774 0.5774
vn 0.5774 0.5774 -0.5774
vn -0.5774 0.5774 -0.5774
vn -0.5774 0.5774 0.5774
vn 0.9045 -0.3015 -0.3015
vn 0.9045 -0.3015 0.3015
vn 0.9045 0.3015 -0.3015
vn 0.9045 0.3015 0.3015
vn 0.5774 -0.5774 0.5773
vn 0.6507 -0.6507 0.3914
vn -0.6507 -0.6507 0.3914
vn 0.9878 -0.1101 -0.1100
vn 0.9878 -0.1101 0.1100
vn 0.9878 0.1101 -0.1100
vn 0.7863 0.1392 0.6019
vn 0.9878 0.1101 0.1101
vn 0.3002 0.3002 0.9054
vn 0.3002 -0.3002 0.9054
vn 0.5743 -0.5789 -0.5789
vn 0.5743 -0.5789 0.5789
vn 0.5743 0.5789 0.5789
vn -0.7863 0.1392 0.6019
vn -0.3002 -0.3002 0.9054
vn -0.3002 0.3002 0.9054
vn 0.5743 0.5789 -0.5789
usemtl Mat
s 1
f 9/21/7 10/22/8 11/23/9 12/24/10
f 13/25/11 14/26/12 15/27/13 16/28/14
f 17/29/15 18/30/16 19/31/17 20/32/18
f 16/33/14 9/34/7 12/35/10 13/36/11
f 16/33/14 21/37/19 22/38/20 9/39/7
f 15/40/13 23/41/21 21/37/19 16/33/14
f 10/42/8 24/43/22 23/41/21 15/40/13
f 9/39/7 22/38/20 24/43/22 10/42/8
f 15/40/13 18/30/16 17/29/15 10/44/8
f 24/43/22 25/45/15 26/46/16 23/41/21
f 27/47/7 28/48/8 29/49/9 30/50/10
f 31/51/15 32/52/16 33/53/17 34/54/18
f 35/55/14 27/56/7 30/57/10 36/58/11
f 35/55/14 37/59/19 38/60/20 27/61/7
f 39/62/13 40/63/21 37/59/19 35/55/14
f 28/64/8 41/65/22 40/63/21 39/62/13
f 27/61/7 38/60/20 41/65/22 28/64/8
f 39/62/13 32/52/16 31/51/15 28/66/8
f 37/59/19 42/67/14 43/68/7 38/60/20
f 44/69/23 45/70/8 46/71/9 47/72/10
f 48/73/11 49/74/12 50/75/13 51/76/14
f 52/77/15 53/78/16 54/79/17 55/80/18
f 51/81/14 44/82/23 47/83/10 48/84/11
f 50/85/13 56/86/21 57/87/19 51/81/14
f 45/88/8 58/89/22 56/86/21 50/85/13
f 44/90/23 59/91/20 58/89/22 45/88/8
f 50/85/13 53/78/16 52/77/15 45/92/8
f 60/93/11 61/94/12 62/95/13 63/96/14
f 64/97/15 65/98/16 66/99/17 67/100/18
f 63/101/14 68/102/24 69/103/25 60/104/11
f 63/101/14 70/105/26 71/106/27 68/107/24
f 62/108/13 72/109/28 70/105/26 63/101/14
f 73/110/29 74/111/30 72/109/28 62/108/13
f 68/107/24 71/106/27 74/111/30 73/110/29
f 62/108/13 65/98/16 64/97/15 73/112/29
f 73/113/29 75/114/31 76/115/32 68/116/24
f 70/105/26 77/117/33 78/118/34 71/106/27
f 77/117/33 79/119/14 80/120/7 78/118/34
f 78/118/34 80/120/7 81/121/15 82/122/35
usemtl Mat_1
f 83/123/14 26/46/16 25/45/15 84/124/7
f 42/67/14 85/125/16 86/126/15 43/68/7
f 87/127/14 88/128/16 89/129/15 90/130/7
f 79/119/14 91/131/16 81/121/15 80/120/7
usemtl Mat_2
f 12/132/10 11/133/9 14/134/12 13/36/11
f 30/135/10 29/136/9 92/137/12 36/58/11
f 47/138/10 46/139/9 49/140/12 48/84/11
f 69/141/25 93/142/36 61/143/12 60/104/11
usemtl default
f 10/44/8 17/29/15 20/32/18 11/144/9
f 14/134/12 19/31/17 18/30/16 15/40/13
f 11/144/9 20/32/18 19/31/17 14/134/12
f 21/37/19 83/123/14 84/124/7 22/38/20
f 23/41/21 26/46/16 83/123/14 21/37/19
f 22/38/20 84/124/7 25/45/15 24/43/22
f 36/145/11 92/146/12 39/147/13 35/148/14
f 28/66/8 31/51/15 34/54/18 29/149/9
f 92/137/12 33/53/17 32/52/16 39/62/13
f 29/149/9 34/54/18 33/53/17 92/137/12
f 40/63/21 85/125/16 42/67/14 37/59/19
f 41/65/22 86/126/15 85/125/16 40/63/21
f 38/60/20 43/68/7 86/126/15 41/65/22
f 51/81/14 57/87/19 59/91/20 44/90/23
f 45/92/8 52/77/15 55/80/18 46/150/9
f 49/140/12 54/79/17 53/78/16 50/85/13
f 46/150/9 55/80/18 54/79/17 49/140/12
f 57/87/19 87/127/14 90/130/7 59/91/20
f 56/86/21 88/128/16 87/127/14 57/87/19
f 58/89/22 89/129/15 88/128/16 56/86/21
f 59/91/20 90/130/7 89/129/15 58/89/22
f 73/112/29 64/97/15 67/100/18 93/151/36
f 61/143/12 66/99/17 65/98/16 62/108/13
f 93/151/36 67/100/18 66/99/17 61/143/12
f 69/152/25 94/153/37 95/154/38 93/155/36
f 93/155/36 95/154/38 75/114/31 73/113/29
f 68/116/24 76/115/32 94/153/37 69/152/25
f 76/115/32 75/114/31 95/154/38 94/153/37
f 71/106/27 78/118/34 82/122/35 74/111/30
f 74/111/30 82/122/35 96/156/39 72/109/28
f 72/109/28 96/156/39 77/117/33 70/105/26
f 96/156/39 91/131/16 79/119/14 77/117/33
f 82/122/35 81/121/15 91/131/16 96/156/39
