{
  "accessors": [
    {
      "name": "default_positions",
      "componentType": 5126,
      "count": 128,
      "min": [-100,2.33300924301147,-378.034851074219],
      "max": [105.192863464355,208.3330078125,54.6768074035645],
      "type": "VEC3",
      "bufferView": 0,
      "byteOffset": 0
    },
    {
      "name": "default_normals",
      "componentType": 5126,
      "count": 128,
      "min": [0,-1,-1],
      "max": [1,1,1],
      "type": "VEC3",
      "bufferView": 1,
      "byteOffset": 0
    },
    {
      "name": "default_texcoords",
      "componentType": 5126,
      "count": 128,
      "min": [0,0],
      "max": [1,1],
      "type": "VEC2",
      "bufferView": 2,
      "byteOffset": 0
    },
    {
      "name": "default_indices",
      "componentType": 5123,
      "count": 240,
      "min": [0],
      "max": [127],
      "type": "SCALAR",
      "bufferView": 3,
      "byteOffset": 0
    },
    {
      "name": "default_1_positions",
      "componentType": 5126,
      "count": 16,
      "min": [103.5,8.62587451934814,-369.934844970703],
      "max": [105.192863464355,196.040145874023,45.6600685119629],
      "type": "VEC3",
      "bufferView": 0,
      "byteOffset": 1536
    },
    {
      "name": "default_1_normals",
      "componentType": 5126,
      "count": 16,
      "min": [1,0,0],
      "max": [1,0,0],
      "type": "VEC3",
      "bufferView": 1,
      "byteOffset": 1536
    },
    {
      "name": "default_1_texcoords",
      "componentType": 5126,
      "count": 16,
      "min": [0.03759970888495,0.03759968280792],
      "max": [0.96240025758743,0.96240019798279],
      "type": "VEC2",
      "bufferView": 2,
      "byteOffset": 1024
    },
    {
      "name": "default_1_indices",
      "componentType": 5123,
      "count": 24,
      "min": [0],
      "max": [15],
      "type": "SCALAR",
      "bufferView": 3,
      "byteOffset": 480
    },
    {
      "name": "default_2_positions",
      "componentType": 5126,
      "count": 16,
      "min": [-100,2.33300924301147,-378.034851074219],
      "max": [-100,202.3330078125,51.9529342651367],
      "type": "VEC3",
      "bufferView": 0,
      "byteOffset": 1728
    },
    {
      "name": "default_2_normals",
      "componentType": 5126,
      "count": 16,
      "min": [-1,0,0],
      "max": [-1,0,0],
      "type": "VEC3",
      "bufferView": 1,
      "byteOffset": 1728
    },
    {
      "name": "default_2_texcoords",
      "componentType": 5126,
      "count": 16,
      "min": [0,0],
      "max": [1,1],
      "type": "VEC2",
      "bufferView": 2,
      "byteOffset": 1152
    },
    {
      "name": "default_2_indices",
      "componentType": 5123,
      "count": 24,
      "min": [0],
      "max": [15],
      "type": "SCALAR",
      "bufferView": 3,
      "byteOffset": 528
    },
    {
      "name": "default_3_positions",
      "componentType": 5126,
      "count": 152,
      "min": [-100,2.33300924301147,-378.034851074219],
      "max": [105.192863464355,208.3330078125,54.6768074035645],
      "type": "VEC3",
      "bufferView": 0,
      "byteOffset": 1920
    },
    {
      "name": "default_3_normals",
      "componentType": 5126,
      "count": 152,
      "min": [-1,-1,-1],
      "max": [1,1,1],
      "type": "VEC3",
      "bufferView": 1,
      "byteOffset": 1920
    },
    {
      "name": "default_3_texcoords",
      "componentType": 5126,
      "count": 152,
      "min": [0,0],
      "max": [1,1],
      "type": "VEC2",
      "bufferView": 2,
      "byteOffset": 1280
    },
    {
      "name": "default_3_indices",
      "componentType": 5123,
      "count": 252,
      "min": [0],
      "max": [151],
      "type": "SCALAR",
      "bufferView": 3,
      "byteOffset": 576
    }
  ],
  "asset": {
    "generator": "arctron",
    "version": "2.0"
  },
  "buffers": [
    {
      "name": "Untitled",
      "byteLength": 11064,
      "uri": "data:application/octet-stream;base64,"
    }
  ],
  "bufferViews": [
    {
      "name": "bufferView_0",
      "buffer": 0,
      "byteLength": 3744,
      "byteOffset": 0,
      "byteStride": 12,
      "target": 34962
    },
    {
      "name": "bufferView_1",
      "buffer": 0,
      "byteLength": 3744,
      "byteOffset": 3744,
      "byteStride": 12,
      "target": 34962
    },
    {
      "name": "bufferView_2",
      "buffer": 0,
      "byteLength": 2496,
      "byteOffset": 7488,
      "byteStride": 8,
      "target": 34962
    },
    {
      "name": "bufferView_3",
      "buffer": 0,
      "byteLength": 1080,
      "byteOffset": 9984,
      "target": 34963
    }
  ],
  "materials": [
    {
      "name": "Mat",
      "pbrMetallicRoughness": {
        "baseColorFactor": [
          0.80000001192093,
          0.80000001192093,
          0.80000001192093,
          1.0
        ],
        "metallicFactor": 0.0,
        "roughnessFactor": 0.95
      },
      "emissiveFactor": [
        0.0,
        0.0,
        0.0
      ],
      "alphaMode": "OPAQUE",
      "doubleSided": false
    },
    {
      "name": "Mat_1",
      "pbrMetallicRoughness": {
        "baseColorFactor": [
          0.80000001192093,
          0.80000001192093,
          0.80000001192093,
          1.0
        ],
        "metallicFactor": 0.0,
        "roughnessFactor": 0.95
      },
      "emissiveFactor": [
        0.0,
        0.0,
        0.0
      ],
      "alphaMode": "OPAQUE",
      "doubleSided": false
    },
    {
      "name": "Mat_2",
      "pbrMetallicRoughness": {
        "baseColorFactor": [
          0.80000001192093,
          0.80000001192093,
          0.80000001192093,
          1.0
        ],
        "metallicFactor": 0.0,
        "roughnessFactor": 0.95
      },
      "emissiveFactor": [
        0.0,
        0.0,
        0.0
      ],
      "alphaMode": "OPAQUE",
      "doubleSided": false
    },
    {
      "name": "default",
      "pbrMetallicRoughness": {
        "baseColorFactor": [
          1.0,
          1.0,
          1.0,
          1.0
        ],
        "metallicFactor": 0.0,
        "roughnessFactor": 1.0
      },
      "emissiveFactor": [
        0.0,
        0.0,
        0.0
      ],
      "alphaMode": "OPAQUE",
      "doubleSided": false
    }
  ],
  "meshes": [
    {
      "name": "default",
      "primitives": [
        {
          "attributes": {
            "POSITION": 0,
            "NORMAL": 1,
            "TEXCOORD_0": 2
          },
          "indices": 3,
          "material": 0,
          "mode": 4
        },
        {
          "attributes": {
            "POSITION": 4,
            "NORMAL": 5,
            "TEXCOORD_0": 6
          },
          "indices": 7,
          "material": 1,
          "mode": 4
        },
        {
          "attributes": {
            "POSITION": 8,
            "NORMAL": 9,
            "TEXCOORD_0": 10
          },
          "indices": 11,
          "material": 2,
          "mode": 4
        },
        {
          "attributes": {
            "POSITION": 12,
            "NORMAL": 13,
            "TEXCOORD_0": 14
          },
          "indices": 15,
          "material": 3,
          "mode": 4
        }
      ]
    }
  ],
  "nodes": [
    {
      "name": "default",
      "mesh": 0
    }
  ],
  "scene": 0,
  "scenes": [
    {
      "nodes": [
        0
      ]
    }
  ]
}